<mxfile host="Electron" modified="2023-11-24T09:21:31.347Z" agent="Mozilla/5.0 (Windows NT 10.0; Win64; x64) AppleWebKit/537.36 (KHTML, like Gecko) draw.io/21.6.1 Chrome/112.0.5615.204 Electron/24.6.1 Safari/537.36" etag="uHolYzoPEEIeSUz0d1l5" version="21.6.1" type="device" pages="2">
  <diagram name="Страница 1" id="8wFxsKqr8Mv85vMIWayc">
    <mxGraphModel dx="1050" dy="638" grid="1" gridSize="10" guides="1" tooltips="1" connect="1" arrows="1" fold="1" page="1" pageScale="1" pageWidth="1169" pageHeight="827" math="0" shadow="0">
      <root>
        <mxCell id="0" />
        <mxCell id="1" parent="0" />
        <mxCell id="RE_AmdFzhywsksr0O4bK-1" value="" style="rounded=0;whiteSpace=wrap;html=1;fillColor=#0000FF;" parent="1" vertex="1">
          <mxGeometry x="200" y="220" width="10" height="200" as="geometry" />
        </mxCell>
        <mxCell id="RE_AmdFzhywsksr0O4bK-2" value="&lt;font style=&quot;font-size: 14px;&quot;&gt;T&lt;/font&gt;" style="rounded=0;whiteSpace=wrap;html=1;fillColor=#f5f5f5;fontColor=#333333;strokeColor=#666666;" parent="1" vertex="1">
          <mxGeometry x="210" y="230" width="60" height="60" as="geometry" />
        </mxCell>
        <mxCell id="RE_AmdFzhywsksr0O4bK-3" value="&lt;font style=&quot;font-size: 14px;&quot;&gt;R&lt;/font&gt;" style="rounded=0;whiteSpace=wrap;html=1;fillColor=#f5f5f5;fontColor=#333333;strokeColor=#666666;" parent="1" vertex="1">
          <mxGeometry x="210" y="350" width="60" height="60" as="geometry" />
        </mxCell>
        <mxCell id="RE_AmdFzhywsksr0O4bK-5" value="Излучатель" style="text;html=1;align=center;verticalAlign=middle;resizable=0;points=[];autosize=1;strokeColor=none;fillColor=none;" parent="1" vertex="1">
          <mxGeometry x="100" y="245" width="90" height="30" as="geometry" />
        </mxCell>
        <mxCell id="RE_AmdFzhywsksr0O4bK-6" value="Приемник" style="text;html=1;align=center;verticalAlign=middle;resizable=0;points=[];autosize=1;strokeColor=none;fillColor=none;" parent="1" vertex="1">
          <mxGeometry x="105" y="365" width="80" height="30" as="geometry" />
        </mxCell>
        <mxCell id="RE_AmdFzhywsksr0O4bK-7" value="" style="rounded=0;whiteSpace=wrap;html=1;fillColor=#a20025;strokeColor=#6F0000;fontColor=#ffffff;" parent="1" vertex="1">
          <mxGeometry x="690" y="180" width="40" height="280" as="geometry" />
        </mxCell>
        <mxCell id="RE_AmdFzhywsksr0O4bK-8" value="" style="endArrow=none;dashed=1;html=1;dashPattern=1 3;strokeWidth=6;rounded=0;exitX=1;exitY=0.5;exitDx=0;exitDy=0;entryX=-0.016;entryY=0.288;entryDx=0;entryDy=0;entryPerimeter=0;strokeColor=#FF0000;" parent="1" source="RE_AmdFzhywsksr0O4bK-2" target="RE_AmdFzhywsksr0O4bK-7" edge="1">
          <mxGeometry width="50" height="50" relative="1" as="geometry">
            <mxPoint x="400" y="280" as="sourcePoint" />
            <mxPoint x="450" y="230" as="targetPoint" />
          </mxGeometry>
        </mxCell>
        <mxCell id="RE_AmdFzhywsksr0O4bK-11" value="" style="endArrow=none;dashed=1;html=1;dashPattern=1 3;strokeWidth=6;rounded=0;exitX=1;exitY=0.5;exitDx=0;exitDy=0;entryX=-0.051;entryY=0.31;entryDx=0;entryDy=0;entryPerimeter=0;strokeColor=#00994D;" parent="1" source="RE_AmdFzhywsksr0O4bK-3" target="RE_AmdFzhywsksr0O4bK-7" edge="1">
          <mxGeometry width="50" height="50" relative="1" as="geometry">
            <mxPoint x="310" y="377" as="sourcePoint" />
            <mxPoint x="730" y="376" as="targetPoint" />
          </mxGeometry>
        </mxCell>
        <mxCell id="RE_AmdFzhywsksr0O4bK-14" value="" style="endArrow=none;dashed=1;html=1;dashPattern=1 3;strokeWidth=6;rounded=0;entryX=-0.034;entryY=0.308;entryDx=0;entryDy=0;entryPerimeter=0;strokeColor=#00994D;opacity=30;" parent="1" target="RE_AmdFzhywsksr0O4bK-7" edge="1">
          <mxGeometry width="50" height="50" relative="1" as="geometry">
            <mxPoint x="250" y="430" as="sourcePoint" />
            <mxPoint x="699" y="320" as="targetPoint" />
          </mxGeometry>
        </mxCell>
        <mxCell id="RE_AmdFzhywsksr0O4bK-15" value="" style="endArrow=none;dashed=1;html=1;dashPattern=1 3;strokeWidth=6;rounded=0;entryX=-0.051;entryY=0.295;entryDx=0;entryDy=0;entryPerimeter=0;strokeColor=#00994D;opacity=30;" parent="1" target="RE_AmdFzhywsksr0O4bK-7" edge="1">
          <mxGeometry width="50" height="50" relative="1" as="geometry">
            <mxPoint x="230" y="340" as="sourcePoint" />
            <mxPoint x="697" y="273" as="targetPoint" />
          </mxGeometry>
        </mxCell>
        <mxCell id="RE_AmdFzhywsksr0O4bK-16" value="" style="endArrow=none;dashed=1;html=1;dashPattern=1 3;strokeWidth=6;rounded=0;entryX=-0.068;entryY=0.308;entryDx=0;entryDy=0;entryPerimeter=0;strokeColor=#00994D;opacity=30;" parent="1" target="RE_AmdFzhywsksr0O4bK-7" edge="1">
          <mxGeometry width="50" height="50" relative="1" as="geometry">
            <mxPoint x="260" y="470" as="sourcePoint" />
            <mxPoint x="697" y="273" as="targetPoint" />
          </mxGeometry>
        </mxCell>
        <mxCell id="RE_AmdFzhywsksr0O4bK-17" value="" style="rounded=0;whiteSpace=wrap;html=1;fillColor=#0000FF;" parent="1" vertex="1">
          <mxGeometry x="200" y="520" width="10" height="200" as="geometry" />
        </mxCell>
        <mxCell id="RE_AmdFzhywsksr0O4bK-18" value="&lt;font style=&quot;font-size: 14px;&quot;&gt;T&lt;/font&gt;" style="rounded=0;whiteSpace=wrap;html=1;fillColor=#f5f5f5;fontColor=#333333;strokeColor=#666666;" parent="1" vertex="1">
          <mxGeometry x="210" y="530" width="60" height="60" as="geometry" />
        </mxCell>
        <mxCell id="RE_AmdFzhywsksr0O4bK-19" value="&lt;font style=&quot;font-size: 14px;&quot;&gt;R&lt;/font&gt;" style="rounded=0;whiteSpace=wrap;html=1;fillColor=#f5f5f5;fontColor=#333333;strokeColor=#666666;" parent="1" vertex="1">
          <mxGeometry x="210" y="650" width="60" height="60" as="geometry" />
        </mxCell>
        <mxCell id="RE_AmdFzhywsksr0O4bK-20" value="Излучатель" style="text;html=1;align=center;verticalAlign=middle;resizable=0;points=[];autosize=1;strokeColor=none;fillColor=none;" parent="1" vertex="1">
          <mxGeometry x="100" y="545" width="90" height="30" as="geometry" />
        </mxCell>
        <mxCell id="RE_AmdFzhywsksr0O4bK-21" value="Приемник" style="text;html=1;align=center;verticalAlign=middle;resizable=0;points=[];autosize=1;strokeColor=none;fillColor=none;" parent="1" vertex="1">
          <mxGeometry x="105" y="665" width="80" height="30" as="geometry" />
        </mxCell>
        <mxCell id="RE_AmdFzhywsksr0O4bK-22" value="" style="rounded=0;whiteSpace=wrap;html=1;fillColor=#a20025;strokeColor=#6F0000;fontColor=#ffffff;rotation=-35;" parent="1" vertex="1">
          <mxGeometry x="690" y="456" width="40" height="280" as="geometry" />
        </mxCell>
        <mxCell id="RE_AmdFzhywsksr0O4bK-23" value="" style="endArrow=none;dashed=1;html=1;dashPattern=1 3;strokeWidth=6;rounded=0;exitX=1;exitY=0.5;exitDx=0;exitDy=0;entryX=-0.016;entryY=0.288;entryDx=0;entryDy=0;entryPerimeter=0;strokeColor=#FF0000;" parent="1" source="RE_AmdFzhywsksr0O4bK-18" target="RE_AmdFzhywsksr0O4bK-22" edge="1">
          <mxGeometry width="50" height="50" relative="1" as="geometry">
            <mxPoint x="400" y="580" as="sourcePoint" />
            <mxPoint x="450" y="530" as="targetPoint" />
          </mxGeometry>
        </mxCell>
        <mxCell id="RE_AmdFzhywsksr0O4bK-24" value="" style="endArrow=none;dashed=1;html=1;dashPattern=1 3;strokeWidth=6;rounded=0;entryX=-0.051;entryY=0.31;entryDx=0;entryDy=0;entryPerimeter=0;strokeColor=#00994D;opacity=30;" parent="1" target="RE_AmdFzhywsksr0O4bK-22" edge="1">
          <mxGeometry width="50" height="50" relative="1" as="geometry">
            <mxPoint x="260" y="760" as="sourcePoint" />
            <mxPoint x="730" y="676" as="targetPoint" />
          </mxGeometry>
        </mxCell>
        <mxCell id="RE_AmdFzhywsksr0O4bK-25" value="" style="endArrow=none;dashed=1;html=1;dashPattern=1 3;strokeWidth=6;rounded=0;entryX=-0.034;entryY=0.308;entryDx=0;entryDy=0;entryPerimeter=0;strokeColor=#00994D;opacity=30;" parent="1" target="RE_AmdFzhywsksr0O4bK-22" edge="1">
          <mxGeometry width="50" height="50" relative="1" as="geometry">
            <mxPoint x="280" y="780" as="sourcePoint" />
            <mxPoint x="699" y="620" as="targetPoint" />
          </mxGeometry>
        </mxCell>
        <mxCell id="RE_AmdFzhywsksr0O4bK-26" value="" style="endArrow=none;dashed=1;html=1;dashPattern=1 3;strokeWidth=6;rounded=0;entryX=-0.051;entryY=0.295;entryDx=0;entryDy=0;entryPerimeter=0;strokeColor=#00994D;opacity=30;" parent="1" target="RE_AmdFzhywsksr0O4bK-22" edge="1">
          <mxGeometry width="50" height="50" relative="1" as="geometry">
            <mxPoint x="250" y="730" as="sourcePoint" />
            <mxPoint x="697" y="573" as="targetPoint" />
          </mxGeometry>
        </mxCell>
        <mxCell id="RE_AmdFzhywsksr0O4bK-27" value="" style="endArrow=none;dashed=1;html=1;dashPattern=1 3;strokeWidth=6;rounded=0;entryX=-0.068;entryY=0.308;entryDx=0;entryDy=0;entryPerimeter=0;strokeColor=#00994D;opacity=30;" parent="1" target="RE_AmdFzhywsksr0O4bK-22" edge="1">
          <mxGeometry width="50" height="50" relative="1" as="geometry">
            <mxPoint x="300" y="810" as="sourcePoint" />
            <mxPoint x="697" y="573" as="targetPoint" />
          </mxGeometry>
        </mxCell>
        <mxCell id="RE_AmdFzhywsksr0O4bK-28" value="&lt;font face=&quot;Times New Roman&quot; style=&quot;font-size: 14px;&quot;&gt;А)&lt;/font&gt;" style="text;html=1;align=center;verticalAlign=middle;resizable=0;points=[];autosize=1;strokeColor=none;fillColor=none;" parent="1" vertex="1">
          <mxGeometry x="410" y="450" width="40" height="30" as="geometry" />
        </mxCell>
        <mxCell id="RE_AmdFzhywsksr0O4bK-29" value="&lt;font face=&quot;Times New Roman&quot; style=&quot;font-size: 14px;&quot;&gt;Б)&lt;/font&gt;" style="text;html=1;align=center;verticalAlign=middle;resizable=0;points=[];autosize=1;strokeColor=none;fillColor=none;" parent="1" vertex="1">
          <mxGeometry x="410" y="810" width="40" height="30" as="geometry" />
        </mxCell>
      </root>
    </mxGraphModel>
  </diagram>
  <diagram id="ZGM55KUP61c7t2F1dhL0" name="Страница 2">
    <mxGraphModel dx="1050" dy="638" grid="1" gridSize="10" guides="1" tooltips="1" connect="1" arrows="1" fold="1" page="1" pageScale="1" pageWidth="1169" pageHeight="827" math="1" shadow="0">
      <root>
        <mxCell id="0" />
        <mxCell id="1" parent="0" />
        <mxCell id="bf54eiLMHDH2I2rsAT2L-7" style="edgeStyle=orthogonalEdgeStyle;rounded=0;orthogonalLoop=1;jettySize=auto;html=1;exitX=1;exitY=0.5;exitDx=0;exitDy=0;entryX=0;entryY=0.5;entryDx=0;entryDy=0;shape=flexArrow;" parent="1" source="bf54eiLMHDH2I2rsAT2L-1" target="bf54eiLMHDH2I2rsAT2L-3" edge="1">
          <mxGeometry relative="1" as="geometry" />
        </mxCell>
        <mxCell id="bf54eiLMHDH2I2rsAT2L-1" value="&lt;font style=&quot;font-size: 14px;&quot;&gt;Формирования стартового &lt;br&gt;импульса длиной 10 мкс на входе &lt;b&gt;TRIG&lt;/b&gt;&lt;/font&gt;" style="rounded=0;whiteSpace=wrap;html=1;fillColor=#dae8fc;strokeColor=#6c8ebf;" parent="1" vertex="1">
          <mxGeometry x="200" y="455" width="240" height="100" as="geometry" />
        </mxCell>
        <mxCell id="bf54eiLMHDH2I2rsAT2L-6" style="edgeStyle=orthogonalEdgeStyle;rounded=0;orthogonalLoop=1;jettySize=auto;html=1;exitX=0.5;exitY=1;exitDx=0;exitDy=0;entryX=0.5;entryY=0;entryDx=0;entryDy=0;shape=flexArrow;" parent="1" source="bf54eiLMHDH2I2rsAT2L-2" target="bf54eiLMHDH2I2rsAT2L-1" edge="1">
          <mxGeometry relative="1" as="geometry" />
        </mxCell>
        <mxCell id="bf54eiLMHDH2I2rsAT2L-2" value="&lt;font style=&quot;font-size: 14px;&quot;&gt;НАЧАЛО&lt;/font&gt;" style="rounded=1;whiteSpace=wrap;html=1;arcSize=50;fillColor=#d5e8d4;strokeColor=#82b366;" parent="1" vertex="1">
          <mxGeometry x="200" y="340" width="240" height="60" as="geometry" />
        </mxCell>
        <mxCell id="bf54eiLMHDH2I2rsAT2L-8" value="" style="edgeStyle=orthogonalEdgeStyle;rounded=0;orthogonalLoop=1;jettySize=auto;html=1;shape=flexArrow;" parent="1" source="bf54eiLMHDH2I2rsAT2L-3" target="bf54eiLMHDH2I2rsAT2L-4" edge="1">
          <mxGeometry relative="1" as="geometry" />
        </mxCell>
        <mxCell id="bf54eiLMHDH2I2rsAT2L-3" value="&lt;font style=&quot;font-size: 14px;&quot;&gt;Измерение длительности &lt;br&gt;импульса [мкс] с вывода &lt;b&gt;ECHO&lt;/b&gt;&lt;br&gt;&lt;br&gt;Используйте функцию&amp;nbsp;&lt;br&gt;&lt;/font&gt;&lt;pre&gt;&lt;font style=&quot;font-size: 14px;&quot;&gt;&lt;b&gt;pulseIn(ECHO_PIN, HIGH)&lt;/b&gt;&lt;/font&gt;&lt;/pre&gt;" style="rounded=0;whiteSpace=wrap;html=1;fillColor=#f5f5f5;fontColor=#333333;strokeColor=#666666;" parent="1" vertex="1">
          <mxGeometry x="480" y="440" width="240" height="130" as="geometry" />
        </mxCell>
        <mxCell id="bf54eiLMHDH2I2rsAT2L-9" value="" style="edgeStyle=orthogonalEdgeStyle;rounded=0;orthogonalLoop=1;jettySize=auto;html=1;shape=flexArrow;" parent="1" source="bf54eiLMHDH2I2rsAT2L-4" target="bf54eiLMHDH2I2rsAT2L-5" edge="1">
          <mxGeometry relative="1" as="geometry" />
        </mxCell>
        <mxCell id="bf54eiLMHDH2I2rsAT2L-4" value="&lt;font style=&quot;font-size: 14px;&quot;&gt;Вычисления расстояния [мм] по формуле (3)&lt;br&gt;$$L_{US}=\tau_{echo} \frac{\sqrt{t+273.15}}{100}$$&lt;br&gt;&lt;i&gt;*температуру воздуха взять приблизительно&lt;/i&gt;&lt;br&gt;&lt;/font&gt;" style="rounded=0;whiteSpace=wrap;html=1;fillColor=#ffe6cc;strokeColor=#d79b00;" parent="1" vertex="1">
          <mxGeometry x="760" y="420" width="240" height="170" as="geometry" />
        </mxCell>
        <mxCell id="bf54eiLMHDH2I2rsAT2L-5" value="&lt;font style=&quot;font-size: 14px;&quot;&gt;КОНЕЦ&lt;/font&gt;" style="rounded=1;whiteSpace=wrap;html=1;arcSize=50;fillColor=#d5e8d4;strokeColor=#82b366;" parent="1" vertex="1">
          <mxGeometry x="760" y="640" width="240" height="60" as="geometry" />
        </mxCell>
      </root>
    </mxGraphModel>
  </diagram>
</mxfile>
